<svg width="300" height="300" viewBox="0 0 300 300" fill="none" xmlns="http://www.w3.org/2000/svg">
<rect width="300" height="300" rx="50" fill="#121434"/>
<path d="M24.7926 172V128.364H54.196V135.97H34.0185V146.368H52.6832V153.974H34.0185V164.393H54.2812V172H24.7926ZM61.3604 172V139.273H70.011V145.047H70.3945C71.0763 143.129 72.2127 141.616 73.8036 140.509C75.3945 139.401 77.2979 138.847 79.5139 138.847C81.7582 138.847 83.6687 139.408 85.2454 140.53C86.8221 141.638 87.8732 143.143 88.3988 145.047H88.7397C89.4073 143.172 90.6147 141.673 92.3619 140.551C94.1232 139.415 96.2042 138.847 98.6048 138.847C101.659 138.847 104.137 139.82 106.041 141.766C107.958 143.697 108.917 146.439 108.917 149.99V172H99.8619V151.78C99.8619 149.962 99.3789 148.598 98.413 147.689C97.4471 146.78 96.2397 146.325 94.7908 146.325C93.1431 146.325 91.8576 146.851 90.9343 147.902C90.011 148.939 89.5494 150.31 89.5494 152.014V172H80.7496V151.588C80.7496 149.983 80.288 148.705 79.3647 147.753C78.4556 146.801 77.2553 146.325 75.7639 146.325C74.7553 146.325 73.8462 146.581 73.0366 147.092C72.2411 147.589 71.609 148.293 71.1403 149.202C70.6715 150.097 70.4371 151.148 70.4371 152.355V172H61.3604ZM130.874 172.639C127.564 172.639 124.702 171.936 122.287 170.53C119.887 169.109 118.033 167.135 116.726 164.607C115.419 162.064 114.766 159.116 114.766 155.764C114.766 152.384 115.419 149.429 116.726 146.901C118.033 144.358 119.887 142.384 122.287 140.977C124.702 139.557 127.564 138.847 130.874 138.847C134.184 138.847 137.039 139.557 139.439 140.977C141.854 142.384 143.715 144.358 145.022 146.901C146.328 149.429 146.982 152.384 146.982 155.764C146.982 159.116 146.328 162.064 145.022 164.607C143.715 167.135 141.854 169.109 139.439 170.53C137.039 171.936 134.184 172.639 130.874 172.639ZM130.917 165.608C132.422 165.608 133.679 165.182 134.688 164.33C135.696 163.463 136.456 162.284 136.968 160.793C137.493 159.301 137.756 157.604 137.756 155.7C137.756 153.797 137.493 152.099 136.968 150.608C136.456 149.116 135.696 147.937 134.688 147.071C133.679 146.205 132.422 145.771 130.917 145.771C129.397 145.771 128.118 146.205 127.081 147.071C126.059 147.937 125.284 149.116 124.759 150.608C124.248 152.099 123.992 153.797 123.992 155.7C123.992 157.604 124.248 159.301 124.759 160.793C125.284 162.284 126.059 163.463 127.081 164.33C128.118 165.182 129.397 165.608 130.917 165.608ZM148.99 135.97V128.364H184.828V135.97H171.469V172H162.349V135.97H148.99ZM190.56 172V139.273H199.636V172H190.56ZM195.119 135.054C193.77 135.054 192.612 134.607 191.646 133.712C190.695 132.803 190.219 131.716 190.219 130.452C190.219 129.202 190.695 128.129 191.646 127.234C192.612 126.325 193.77 125.871 195.119 125.871C196.469 125.871 197.619 126.325 198.571 127.234C199.537 128.129 200.02 129.202 200.02 130.452C200.02 131.716 199.537 132.803 198.571 133.712C197.619 134.607 196.469 135.054 195.119 135.054ZM224.507 139.273V146.091H204.308V139.273H224.507ZM208.931 172V136.908C208.931 134.536 209.393 132.568 210.316 131.006C211.254 129.443 212.532 128.271 214.152 127.49C215.771 126.709 217.61 126.318 219.67 126.318C221.062 126.318 222.333 126.425 223.484 126.638C224.649 126.851 225.515 127.043 226.083 127.213L224.464 134.031C224.109 133.918 223.669 133.811 223.143 133.712C222.632 133.612 222.106 133.562 221.566 133.562C220.231 133.562 219.301 133.875 218.775 134.5C218.25 135.111 217.987 135.97 217.987 137.078V172H208.931ZM235.656 184.273C234.505 184.273 233.425 184.18 232.417 183.996C231.423 183.825 230.599 183.605 229.945 183.335L231.991 176.56C233.056 176.886 234.015 177.064 234.867 177.092C235.734 177.121 236.479 176.922 237.104 176.496C237.744 176.07 238.262 175.345 238.66 174.322L239.192 172.938L227.452 139.273H236.998L243.773 163.307H244.114L250.954 139.273H260.563L247.843 175.537C247.232 177.298 246.401 178.832 245.35 180.139C244.313 181.46 242.999 182.476 241.408 183.186C239.817 183.911 237.9 184.273 235.656 184.273ZM268.463 172.554C267.056 172.554 265.849 172.057 264.841 171.062C263.846 170.054 263.349 168.847 263.349 167.44C263.349 166.048 263.846 164.855 264.841 163.861C265.849 162.866 267.056 162.369 268.463 162.369C269.826 162.369 271.02 162.866 272.042 163.861C273.065 164.855 273.576 166.048 273.576 167.44C273.576 168.378 273.335 169.237 272.852 170.018C272.383 170.786 271.765 171.403 270.998 171.872C270.231 172.327 269.386 172.554 268.463 172.554Z" fill="white"/>
</svg>
